# Exported from ProBuilder
# http://www.procore3d.com/probuilder
# 02/08/2018 11:40:58

mtllib ./Atrium.mtl
o Atrium

g Atrium
v -17.55078 -21.19115 1.180943
v 0.4145851 -12.93735 1.180943
v -13.12103 -10.68813 1.180943
v 0.1786571 -21.18404 1.180943
v -17.55078 -21.19115 23.4548
v 0.4145851 -12.93735 23.4548
v 0.1786575 -21.18404 23.4548
v -13.12103 -10.68813 23.4548
v -17.55078 -21.19115 1.180943
v 0.1786575 -21.18404 23.4548
v 0.1786571 -21.18404 1.180943
v -17.55078 -21.19115 23.4548
v 0.1786571 -21.18404 1.180943
v 0.4145851 -12.93735 23.4548
v 0.4145851 -12.93735 1.180943
v 0.1786575 -21.18404 23.4548
v 0.4145851 -12.93735 1.180943
v -13.12103 -10.68813 23.4548
v -13.12103 -10.68813 1.180943
v 0.4145851 -12.93735 23.4548
v -13.12103 -10.68813 1.180943
v -17.55078 -21.19115 23.4548
v -17.55078 -21.19115 1.180943
v -13.12103 -10.68813 23.4548

vn 0 0 1
vn 0 0 0.9999999
vn 0 0 1
vn 0 0 1
vn 0 0 -1
vn 0 0 -0.9999999
vn 0 0 -1
vn 0 0 -1
vn -0.0004010614 0.9999999 0
vn -0.0004010614 0.9999999 0
vn -0.0004010614 0.9999999 0
vn -0.0004010614 0.9999999 0
vn -0.9995911 0.02859711 2.139918E-08
vn -0.9995911 0.02859705 0
vn -0.9995911 0.02859708 1.069959E-08
vn -0.9995911 0.02859708 1.069959E-08
vn -0.1639229 -0.9864731 0
vn -0.1639229 -0.9864731 0
vn -0.1639229 -0.9864731 0
vn -0.1639229 -0.9864731 0
vn 0.9214021 -0.3886106 0
vn 0.9214021 -0.3886106 0
vn 0.9214021 -0.3886106 0
vn 0.9214021 -0.3886106 0

vt 1 0
vt 0 1
vt 1 1
vt 0 0
vt 0 0
vt 1 1
vt 1 0
vt 0 1
vt 0 0
vt 1 1
vt 1 0
vt 0 1
vt 0 0
vt 1 1
vt 1 0
vt 0 1
vt 0 0
vt 1 1
vt 1 0
vt 0 1
vt 0 0
vt 1 1
vt 1 0
vt 0 1

g Atrium
usemtl Default-Material
f 2/2/2 3/3/3 1/1/1 4/4/4
f 6/6/6 7/7/7 5/5/5 8/8/8
f 10/10/10 11/11/11 9/9/9 12/12/12
f 14/14/14 15/15/15 13/13/13 16/16/16
f 18/18/18 19/19/19 17/17/17 20/20/20
f 22/22/22 23/23/23 21/21/21 24/24/24

