g Mesh1
# Vertex Positions: 178
v -2.75 0 147
v -2.84515 0 147.4783
v -3.191605 0.375 147.3349
v -3.125 0.375 147
v -4 0 147
v -3.260175 0.5820313 147.3064
v -3.199219 0.5820313 147
v -3.354006 1.042969 147.2676
v -3.300781 1.042969 147
v -3.422575 1.25 147.2392
v -3.375 1.25 147
v -3.491144 1.4375 147.2108
v -3.449219 1.4375 147
v -3.584976 1.8125 147.1719
v -3.550781 1.8125 147
v -3.653545 2 147.1435
v -3.625 2 147
v -3.740159 2.091797 147.1076
v -3.71875 2.091797 147
v -3.826773 2.171875 147.0717
v -3.8125 2.171875 147
v -3.913386 2.228516 147.0359
v -3.90625 2.228516 147
v -4 2.25 147
v -3.116117 0 147.8839
v -3.381282 0.375 147.6187
v -3.433762 0.5820313 147.5662
v -3.505578 1.042969 147.4944
v -3.558058 1.25 147.4419
v -3.610539 1.4375 147.3895
v -3.682354 1.8125 147.3176
v -3.734835 2 147.2652
v -3.801126 2.091797 147.1989
v -3.867418 2.171875 147.1326
v -3.933709 2.228516 147.0663
v -3.521646 0 148.1548
v -3.665152 0.375 147.8084
v -3.693554 0.5820313 147.7398
v -3.732421 1.042969 147.646
v -3.760823 1.25 147.5774
v -3.789225 1.4375 147.5089
v -3.828091 1.8125 147.415
v -3.856494 2 147.3465
v -3.89237 2.091797 147.2598
v -3.928247 2.171875 147.1732
v -3.964123 2.228516 147.0866
v -4 0 148.25
v -4 0.375 147.875
v -4 0.5820313 147.8008
v -4 1.042969 147.6992
v -4 1.25 147.625
v -4 1.4375 147.5508
v -4 1.8125 147.4492
v -4 2 147.375
v -4 2.091797 147.2813
v -4 2.171875 147.1875
v -4 2.228516 147.0938
v -4.478354 0 148.1548
v -4.334848 0.375 147.8084
v -4.306446 0.5820313 147.7398
v -4.26758 1.042969 147.646
v -4.239177 1.25 147.5774
v -4.210775 1.4375 147.5089
v -4.171908 1.8125 147.415
v -4.143506 2 147.3465
v -4.10763 2.091797 147.2598
v -4.071753 2.171875 147.1732
v -4.035877 2.228516 147.0866
v -4.883883 0 147.8839
v -4.618718 0.375 147.6187
v -4.566238 0.5820313 147.5662
v -4.494422 1.042969 147.4944
v -4.441942 1.25 147.4419
v -4.389461 1.4375 147.3895
v -4.317646 1.8125 147.3176
v -4.265165 2 147.2652
v -4.198874 2.091797 147.1989
v -4.132583 2.171875 147.1326
v -4.066291 2.228516 147.0663
v -5.154849 0 147.4783
v -4.808394 0.375 147.3349
v -4.739825 0.5820313 147.3064
v -4.645994 1.042969 147.2676
v -4.577425 1.25 147.2392
v -4.508855 1.4375 147.2108
v -4.415024 1.8125 147.1719
v -4.346455 2 147.1435
v -4.259841 2.091797 147.1076
v -4.173227 2.171875 147.0717
v -4.086614 2.228516 147.0359
v -5.25 0 147
v -4.875 0.375 147
v -4.800781 0.5820313 147
v -4.699219 1.042969 147
v -4.625 1.25 147
v -4.550781 1.4375 147
v -4.449219 1.8125 147
v -4.375 2 147
v -4.28125 2.091797 147
v -4.1875 2.171875 147
v -4.09375 2.228516 147
v -5.154849 0 146.5217
v -4.808394 0.375 146.6651
v -4.739825 0.5820313 146.6936
v -4.645994 1.042969 146.7324
v -4.577425 1.25 146.7608
v -4.508855 1.4375 146.7892
v -4.415024 1.8125 146.8281
v -4.346455 2 146.8565
v -4.259841 2.091797 146.8924
v -4.173227 2.171875 146.9283
v -4.086614 2.228516 146.9641
v -4.883883 0 146.1161
v -4.618719 0.375 146.3813
v -4.566238 0.5820313 146.4338
v -4.494422 1.042969 146.5056
v -4.441942 1.25 146.5581
v -4.389461 1.4375 146.6105
v -4.317646 1.8125 146.6824
v -4.265165 2 146.7348
v -4.198874 2.091797 146.8011
v -4.132583 2.171875 146.8674
v -4.066291 2.228516 146.9337
v -4.478354 0 145.8452
v -4.334848 0.375 146.1916
v -4.306446 0.5820313 146.2602
v -4.26758 1.042969 146.354
v -4.239177 1.25 146.4226
v -4.210775 1.4375 146.4911
v -4.171908 1.8125 146.585
v -4.143507 2 146.6535
v -4.10763 2.091797 146.7402
v -4.071753 2.171875 146.8268
v -4.035877 2.228516 146.9134
v -4 0 145.75
v -4 0.375 146.125
v -4 0.5820313 146.1992
v -4 1.042969 146.3008
v -4 1.25 146.375
v -4 1.4375 146.4492
v -4 1.8125 146.5508
v -4 2 146.625
v -4 2.091797 146.7188
v -4 2.171875 146.8125
v -4 2.228516 146.9063
v -3.521646 0 145.8452
v -3.665152 0.375 146.1916
v -3.693554 0.5820313 146.2602
v -3.73242 1.042969 146.354
v -3.760823 1.25 146.4226
v -3.789225 1.4375 146.4911
v -3.828091 1.8125 146.585
v -3.856494 2 146.6535
v -3.89237 2.091797 146.7402
v -3.928247 2.171875 146.8268
v -3.964123 2.228516 146.9134
v -3.116117 0 146.1161
v -3.381282 0.375 146.3813
v -3.433762 0.5820313 146.4338
v -3.505578 1.042969 146.5056
v -3.558058 1.25 146.5581
v -3.610539 1.4375 146.6105
v -3.682354 1.8125 146.6824
v -3.734835 2 146.7348
v -3.801126 2.091797 146.8011
v -3.867418 2.171875 146.8674
v -3.933709 2.228516 146.9337
v -2.84515 0 146.5217
v -3.191605 0.375 146.6651
v -3.260175 0.5820313 146.6936
v -3.354006 1.042969 146.7324
v -3.422575 1.25 146.7608
v -3.491144 1.4375 146.7892
v -3.584976 1.8125 146.8281
v -3.653545 2 146.8565
v -3.740159 2.091797 146.8924
v -3.826773 2.171875 146.9283
v -3.913386 2.228516 146.9641
# Vertex UVs: 52
vt 0.1219316 -0.7861913
vt -0.1219313 -0.7861913
vt -0.08535193 -0.5235615
vt 0.08535211 -0.5235615
vt -0.08535191 0.2680662
vt 0.08535212 0.2680662
vt 1.490116E-08 -0.2002046
vt 0.08535197 -0.4371371
vt -0.08535206 -0.4371371
vt -0.07811238 -0.3274093
vt 0.07811229 -0.3274093
vt -0.07811227 0.1910764
vt 0.07811241 0.1910764
vt -1.490116E-08 -0.2976988
vt 0.07811227 -0.2872181
vt -0.07811239 -0.2872181
vt -0.06820546 -0.05142914
vt 0.06820535 -0.05142914
vt 0.06820542 -0.093468
vt -0.0682054 -0.093468
vt -0.06096572 0.01625974
vt 0.06096573 0.01625974
vt 0.06096569 0.005602648
vt -0.06096577 0.005602655
vt -0.05372608 0.1061698
vt 0.05372601 0.1061698
vt -0.05372606 0.299782
vt 0.05372604 0.299782
vt 7.450581E-09 -0.4680429
vt 0.05372607 0.1420768
vt -0.05372603 0.1420768
vt -0.0438191 0.3360789
vt 0.04381913 0.3360789
vt 0.04381914 0.2989849
vt -0.0438191 0.2989849
vt -0.03657942 0.399552
vt 0.03657946 0.399552
vt 0.03657945 0.2231189
vt -0.03657943 0.2231189
vt -0.02743457 0.2880828
vt 0.02743459 0.2880828
vt 0.02743459 0.2545113
vt -0.02743456 0.2545113
vt -0.01828971 0.3154766
vt 0.01828973 0.3154766
vt 0.01828968 0.2290248
vt -0.01828977 0.2290248
vt -0.009144912 0.2830218
vt 0.00914481 0.2830218
vt 0.009144838 0.09499229
vt -0.009144881 0.09499229
vt -1.862645E-08 0.1422049
# Vertex Normals: 192
vn 0.7002145 0.7002144 0.1392813
vn -0.3927156 0.9163364 -0.07811597
vn 0.9252592 0.3316967 0.1840454
vn -0.5839573 0.8034312 -0.1161563
vn 0.9586555 0.2112292 0.1906884
vn 0.9143006 0.3619106 0.1818657
vn -0.9180992 0.3517717 -0.1826213
vn 0.9479133 0.2567265 0.1885517
vn 0.692947 0.7076905 0.1378357
vn 0.6441328 0.7541066 0.128126
vn 0.5144016 0.8514233 0.1023208
vn 0.223156 0.9737716 0.04438848
vn 0.5936132 0.7002145 0.3966397
vn -0.3329282 0.9163364 -0.2224555
vn 0.7843969 0.3316968 0.5241173
vn -0.495055 0.8034312 -0.3307853
vn 0.8127087 0.2112291 0.5430348
vn 0.7751067 0.3619106 0.5179097
vn -0.7783269 0.3517717 -0.5200614
vn 0.8036022 0.2567265 0.5369498
vn 0.587452 0.7076905 0.3925229
vn 0.5460694 0.7541066 0.3648719
vn 0.4360885 0.8514232 0.2913851
vn 0.1891825 0.9737715 0.1264077
vn 0.3966396 0.7002145 0.5936133
vn -0.2224554 0.9163364 -0.3329282
vn 0.5241171 0.3316967 0.784397
vn -0.3307852 0.8034312 -0.4950551
vn 0.5430346 0.2112291 0.8127089
vn 0.5179096 0.3619106 0.7751067
vn -0.5200613 0.3517717 -0.7783269
vn 0.5369496 0.2567266 0.8036022
vn 0.3925228 0.7076905 0.5874522
vn 0.3648718 0.7541066 0.5460693
vn 0.2913849 0.8514232 0.4360887
vn 0.1264077 0.9737715 0.1891825
vn 0.1392812 0.7002145 0.7002146
vn -0.07811599 0.9163364 -0.3927156
vn 0.1840455 0.3316967 0.9252592
vn -0.1161563 0.8034312 -0.5839573
vn 0.1906884 0.2112292 0.9586555
vn 0.1818655 0.3619107 0.9143006
vn -0.1826211 0.3517717 -0.9180992
vn 0.1885515 0.2567265 0.9479134
vn 0.1378357 0.7076905 0.692947
vn 0.1281259 0.7541066 0.6441328
vn 0.1023208 0.8514233 0.5144016
vn 0.04438849 0.9737716 0.223156
vn -0.1392812 0.7002146 0.7002146
vn 0.07811596 0.9163364 -0.3927156
vn -0.1840454 0.3316967 0.9252592
vn 0.1161563 0.8034312 -0.5839573
vn -0.1906883 0.2112291 0.9586555
vn -0.1818655 0.3619106 0.9143006
vn 0.182621 0.3517717 -0.9180993
vn -0.1885514 0.2567266 0.9479134
vn -0.1378357 0.7076904 0.692947
vn -0.1281258 0.7541066 0.6441327
vn -0.1023208 0.8514232 0.5144016
vn -0.04438848 0.9737716 0.223156
vn -0.3966397 0.7002145 0.5936132
vn 0.2224555 0.9163364 -0.3329282
vn -0.5241172 0.3316967 0.7843969
vn 0.3307852 0.8034312 -0.4950551
vn -0.5430346 0.2112292 0.8127088
vn -0.5179098 0.3619106 0.7751065
vn 0.5200614 0.3517717 -0.7783269
vn -0.5369498 0.2567266 0.8036022
vn -0.3925228 0.7076905 0.5874521
vn -0.3648719 0.7541066 0.5460694
vn -0.291385 0.8514231 0.4360886
vn -0.1264077 0.9737715 0.1891825
vn -0.5936131 0.7002146 0.3966397
vn 0.3329283 0.9163364 -0.2224555
vn -0.7843971 0.3316965 0.5241171
vn 0.4950551 0.8034312 -0.3307852
vn -0.8127088 0.2112292 0.5430346
vn -0.7751065 0.3619107 0.5179098
vn 0.778327 0.3517717 -0.5200614
vn -0.8036022 0.2567265 0.5369497
vn -0.5874522 0.7076904 0.3925229
vn -0.5460693 0.7541066 0.3648719
vn -0.4360887 0.8514232 0.291385
vn -0.1891825 0.9737716 0.1264077
vn -0.7002144 0.7002144 0.1392814
vn 0.3927156 0.9163364 -0.07811614
vn -0.9252591 0.3316966 0.1840458
vn 0.5839573 0.8034311 -0.1161565
vn -0.9586554 0.2112291 0.1906887
vn -0.9143006 0.3619106 0.1818659
vn 0.9180991 0.3517717 -0.1826215
vn -0.9479133 0.2567265 0.1885519
vn -0.692947 0.7076905 0.1378359
vn -0.6441327 0.7541066 0.1281261
vn -0.5144016 0.8514232 0.102321
vn -0.223156 0.9737716 0.04438856
vn -0.7002144 0.7002146 -0.1392815
vn 0.3927156 0.9163364 0.0781162
vn -0.9252592 0.3316965 -0.184046
vn 0.5839573 0.8034312 0.1161565
vn -0.9586552 0.2112292 -0.1906887
vn -0.9143005 0.3619107 -0.181866
vn 0.9180992 0.3517717 0.1826216
vn -0.9479133 0.2567265 -0.188552
vn -0.692947 0.7076905 -0.137836
vn -0.6441327 0.7541066 -0.1281262
vn -0.5144016 0.8514232 -0.102321
vn -0.223156 0.9737715 -0.04438858
vn -0.5936134 0.7002145 -0.3966393
vn 0.3329283 0.9163364 0.2224553
vn -0.7843972 0.3316966 -0.5241168
vn 0.4950553 0.8034312 0.330785
vn -0.8127091 0.2112292 -0.5430342
vn -0.7751068 0.3619106 -0.5179093
vn 0.7783272 0.3517717 0.520061
vn -0.8036024 0.2567266 -0.5369493
vn -0.5874523 0.7076905 -0.3925226
vn -0.5460695 0.7541066 -0.3648716
vn -0.4360887 0.8514233 -0.2913848
vn -0.1891826 0.9737716 -0.1264076
vn -0.3966396 0.7002145 -0.5936131
vn 0.2224555 0.9163364 0.3329282
vn -0.5241172 0.3316967 -0.7843969
vn 0.3307852 0.8034312 0.4950551
vn -0.5430346 0.2112291 -0.8127089
vn -0.5179097 0.3619107 -0.7751066
vn 0.5200614 0.3517717 0.7783269
vn -0.5369498 0.2567266 -0.8036022
vn -0.3925228 0.7076904 -0.5874521
vn -0.3648719 0.7541066 -0.5460693
vn -0.291385 0.8514232 -0.4360886
vn -0.1264077 0.9737715 -0.1891825
vn -0.1392811 0.7002144 -0.7002146
vn 0.07811594 0.9163364 0.3927156
vn -0.1840454 0.3316967 -0.9252592
vn 0.1161562 0.8034312 0.5839573
vn -0.1906883 0.2112291 -0.9586554
vn -0.1818654 0.3619107 -0.9143006
vn 0.182621 0.3517717 0.9180993
vn -0.1885514 0.2567265 -0.9479134
vn -0.1378357 0.7076905 -0.692947
vn -0.1281258 0.7541065 -0.6441328
vn -0.1023208 0.8514231 -0.5144015
vn -0.04438846 0.9737716 -0.223156
vn 0.1392812 0.7002146 -0.7002146
vn -0.07811597 0.9163364 0.3927156
vn 0.1840454 0.3316967 -0.9252592
vn -0.1161563 0.8034312 0.5839573
vn 0.1906884 0.2112291 -0.9586555
vn 0.1818655 0.3619106 -0.9143006
vn -0.182621 0.3517717 0.9180993
vn 0.1885514 0.2567266 -0.9479134
vn 0.1378357 0.7076904 -0.692947
vn 0.1281258 0.7541066 -0.6441327
vn 0.1023208 0.8514232 -0.5144016
vn 0.04438848 0.9737716 -0.223156
vn 0.3966398 0.7002145 -0.5936131
vn -0.2224555 0.9163364 0.3329282
vn 0.5241171 0.3316969 -0.7843968
vn -0.3307853 0.8034312 0.4950551
vn 0.5430347 0.2112291 -0.8127088
vn 0.5179098 0.3619106 -0.7751065
vn -0.5200614 0.3517717 0.7783269
vn 0.5369498 0.2567266 -0.803602
vn 0.3925229 0.7076906 -0.5874521
vn 0.364872 0.7541066 -0.5460693
vn 0.291385 0.8514232 -0.4360886
vn 0.1264077 0.9737716 -0.1891825
vn 0.5936131 0.7002144 -0.3966397
vn -0.3329282 0.9163364 0.2224555
vn 0.7843969 0.3316966 -0.5241173
vn -0.495055 0.8034312 0.3307853
vn 0.8127087 0.2112292 -0.5430348
vn 0.7751065 0.3619106 -0.5179098
vn -0.7783269 0.3517717 0.5200614
vn 0.8036022 0.2567265 -0.5369498
vn 0.587452 0.7076905 -0.3925229
vn 0.5460693 0.7541066 -0.3648719
vn 0.4360885 0.8514232 -0.2913851
vn 0.1891825 0.9737715 -0.1264077
vn 0.7002146 0.7002145 -0.1392813
vn -0.3927156 0.9163364 0.07811593
vn 0.9252592 0.3316967 -0.1840454
vn -0.5839573 0.8034312 0.1161562
vn 0.9586554 0.2112291 -0.1906883
vn 0.9143006 0.3619106 -0.1818656
vn -0.9180992 0.3517717 0.1826212
vn 0.9479133 0.2567265 -0.1885516
vn 0.692947 0.7076905 -0.1378357
vn 0.6441327 0.7541066 -0.1281259
vn 0.5144015 0.8514232 -0.1023208
vn 0.223156 0.9737716 -0.04438846
# Faces: 224
f 4/4/1 3/3/1 2/2/1 1/1/1 
f 5/7/2 5/7/2 3/6/2 4/5/2 
f 7/11/3 6/10/3 3/9/3 4/8/3 
f 5/14/4 5/14/4 6/13/4 7/12/4 
f 9/18/5 8/17/5 6/16/5 7/15/5 
f 11/22/3 10/21/3 8/20/3 9/19/3 
f 13/26/6 12/25/6 10/24/6 11/23/6 
f 5/29/7 5/29/7 12/28/7 13/27/7 
f 15/33/8 14/32/8 12/31/8 13/30/8 
f 17/37/6 16/36/6 14/35/6 15/34/6 
f 19/41/9 18/40/9 16/39/9 17/38/9 
f 21/45/10 20/44/10 18/43/10 19/42/10 
f 23/49/11 22/48/11 20/47/11 21/46/11 
f 24/52/12 24/52/12 22/51/12 23/50/12 
f 3/4/13 26/3/13 25/2/13 2/1/13 
f 5/7/14 5/7/14 26/6/14 3/5/14 
f 6/11/15 27/10/15 26/9/15 3/8/15 
f 5/14/16 5/14/16 27/13/16 6/12/16 
f 8/18/17 28/17/17 27/16/17 6/15/17 
f 10/22/15 29/21/15 28/20/15 8/19/15 
f 12/26/18 30/25/18 29/24/18 10/23/18 
f 5/29/19 5/29/19 30/28/19 12/27/19 
f 14/33/20 31/32/20 30/31/20 12/30/20 
f 16/37/18 32/36/18 31/35/18 14/34/18 
f 18/41/21 33/40/21 32/39/21 16/38/21 
f 20/45/22 34/44/22 33/43/22 18/42/22 
f 22/49/23 35/48/23 34/47/23 20/46/23 
f 24/52/24 24/52/24 35/51/24 22/50/24 
f 26/4/25 37/3/25 36/2/25 25/1/25 
f 5/7/26 5/7/26 37/6/26 26/5/26 
f 27/11/27 38/10/27 37/9/27 26/8/27 
f 5/14/28 5/14/28 38/13/28 27/12/28 
f 28/18/29 39/17/29 38/16/29 27/15/29 
f 29/22/27 40/21/27 39/20/27 28/19/27 
f 30/26/30 41/25/30 40/24/30 29/23/30 
f 5/29/31 5/29/31 41/28/31 30/27/31 
f 31/33/32 42/32/32 41/31/32 30/30/32 
f 32/37/30 43/36/30 42/35/30 31/34/30 
f 33/41/33 44/40/33 43/39/33 32/38/33 
f 34/45/34 45/44/34 44/43/34 33/42/34 
f 35/49/35 46/48/35 45/47/35 34/46/35 
f 24/52/36 24/52/36 46/51/36 35/50/36 
f 37/4/37 48/3/37 47/2/37 36/1/37 
f 5/7/38 5/7/38 48/6/38 37/5/38 
f 38/11/39 49/10/39 48/9/39 37/8/39 
f 5/14/40 5/14/40 49/13/40 38/12/40 
f 39/18/41 50/17/41 49/16/41 38/15/41 
f 40/22/39 51/21/39 50/20/39 39/19/39 
f 41/26/42 52/25/42 51/24/42 40/23/42 
f 5/29/43 5/29/43 52/28/43 41/27/43 
f 42/33/44 53/32/44 52/31/44 41/30/44 
f 43/37/42 54/36/42 53/35/42 42/34/42 
f 44/41/45 55/40/45 54/39/45 43/38/45 
f 45/45/46 56/44/46 55/43/46 44/42/46 
f 46/49/47 57/48/47 56/47/47 45/46/47 
f 24/52/48 24/52/48 57/51/48 46/50/48 
f 48/4/49 59/3/49 58/2/49 47/1/49 
f 5/7/50 5/7/50 59/6/50 48/5/50 
f 49/11/51 60/10/51 59/9/51 48/8/51 
f 5/14/52 5/14/52 60/13/52 49/12/52 
f 50/18/53 61/17/53 60/16/53 49/15/53 
f 51/22/51 62/21/51 61/20/51 50/19/51 
f 52/26/54 63/25/54 62/24/54 51/23/54 
f 5/29/55 5/29/55 63/28/55 52/27/55 
f 53/33/56 64/32/56 63/31/56 52/30/56 
f 54/37/54 65/36/54 64/35/54 53/34/54 
f 55/41/57 66/40/57 65/39/57 54/38/57 
f 56/45/58 67/44/58 66/43/58 55/42/58 
f 57/49/59 68/48/59 67/47/59 56/46/59 
f 24/52/60 24/52/60 68/51/60 57/50/60 
f 59/4/61 70/3/61 69/2/61 58/1/61 
f 5/7/62 5/7/62 70/6/62 59/5/62 
f 60/11/63 71/10/63 70/9/63 59/8/63 
f 5/14/64 5/14/64 71/13/64 60/12/64 
f 61/18/65 72/17/65 71/16/65 60/15/65 
f 62/22/63 73/21/63 72/20/63 61/19/63 
f 63/26/66 74/25/66 73/24/66 62/23/66 
f 5/29/67 5/29/67 74/28/67 63/27/67 
f 64/33/68 75/32/68 74/31/68 63/30/68 
f 65/37/66 76/36/66 75/35/66 64/34/66 
f 66/41/69 77/40/69 76/39/69 65/38/69 
f 67/45/70 78/44/70 77/43/70 66/42/70 
f 68/49/71 79/48/71 78/47/71 67/46/71 
f 24/52/72 24/52/72 79/51/72 68/50/72 
f 70/4/73 81/3/73 80/2/73 69/1/73 
f 5/7/74 5/7/74 81/6/74 70/5/74 
f 71/11/75 82/10/75 81/9/75 70/8/75 
f 5/14/76 5/14/76 82/13/76 71/12/76 
f 72/18/77 83/17/77 82/16/77 71/15/77 
f 73/22/75 84/21/75 83/20/75 72/19/75 
f 74/26/78 85/25/78 84/24/78 73/23/78 
f 5/29/79 5/29/79 85/28/79 74/27/79 
f 75/33/80 86/32/80 85/31/80 74/30/80 
f 76/37/78 87/36/78 86/35/78 75/34/78 
f 77/41/81 88/40/81 87/39/81 76/38/81 
f 78/45/82 89/44/82 88/43/82 77/42/82 
f 79/49/83 90/48/83 89/47/83 78/46/83 
f 24/52/84 24/52/84 90/51/84 79/50/84 
f 81/4/85 92/3/85 91/2/85 80/1/85 
f 5/7/86 5/7/86 92/6/86 81/5/86 
f 82/11/87 93/10/87 92/9/87 81/8/87 
f 5/14/88 5/14/88 93/13/88 82/12/88 
f 83/18/89 94/17/89 93/16/89 82/15/89 
f 84/22/87 95/21/87 94/20/87 83/19/87 
f 85/26/90 96/25/90 95/24/90 84/23/90 
f 5/29/91 5/29/91 96/28/91 85/27/91 
f 86/33/92 97/32/92 96/31/92 85/30/92 
f 87/37/90 98/36/90 97/35/90 86/34/90 
f 88/41/93 99/40/93 98/39/93 87/38/93 
f 89/45/94 100/44/94 99/43/94 88/42/94 
f 90/49/95 101/48/95 100/47/95 89/46/95 
f 24/52/96 24/52/96 101/51/96 90/50/96 
f 92/4/97 103/3/97 102/2/97 91/1/97 
f 5/7/98 5/7/98 103/6/98 92/5/98 
f 93/11/99 104/10/99 103/9/99 92/8/99 
f 5/14/100 5/14/100 104/13/100 93/12/100 
f 94/18/101 105/17/101 104/16/101 93/15/101 
f 95/22/99 106/21/99 105/20/99 94/19/99 
f 96/26/102 107/25/102 106/24/102 95/23/102 
f 5/29/103 5/29/103 107/28/103 96/27/103 
f 97/33/104 108/32/104 107/31/104 96/30/104 
f 98/37/102 109/36/102 108/35/102 97/34/102 
f 99/41/105 110/40/105 109/39/105 98/38/105 
f 100/45/106 111/44/106 110/43/106 99/42/106 
f 101/49/107 112/48/107 111/47/107 100/46/107 
f 24/52/108 24/52/108 112/51/108 101/50/108 
f 103/4/109 114/3/109 113/2/109 102/1/109 
f 5/7/110 5/7/110 114/6/110 103/5/110 
f 104/11/111 115/10/111 114/9/111 103/8/111 
f 5/14/112 5/14/112 115/13/112 104/12/112 
f 105/18/113 116/17/113 115/16/113 104/15/113 
f 106/22/111 117/21/111 116/20/111 105/19/111 
f 107/26/114 118/25/114 117/24/114 106/23/114 
f 5/29/115 5/29/115 118/28/115 107/27/115 
f 108/33/116 119/32/116 118/31/116 107/30/116 
f 109/37/114 120/36/114 119/35/114 108/34/114 
f 110/41/117 121/40/117 120/39/117 109/38/117 
f 111/45/118 122/44/118 121/43/118 110/42/118 
f 112/49/119 123/48/119 122/47/119 111/46/119 
f 24/52/120 24/52/120 123/51/120 112/50/120 
f 114/4/121 125/3/121 124/2/121 113/1/121 
f 5/7/122 5/7/122 125/6/122 114/5/122 
f 115/11/123 126/10/123 125/9/123 114/8/123 
f 5/14/124 5/14/124 126/13/124 115/12/124 
f 116/18/125 127/17/125 126/16/125 115/15/125 
f 117/22/123 128/21/123 127/20/123 116/19/123 
f 118/26/126 129/25/126 128/24/126 117/23/126 
f 5/29/127 5/29/127 129/28/127 118/27/127 
f 119/33/128 130/32/128 129/31/128 118/30/128 
f 120/37/126 131/36/126 130/35/126 119/34/126 
f 121/41/129 132/40/129 131/39/129 120/38/129 
f 122/45/130 133/44/130 132/43/130 121/42/130 
f 123/49/131 134/48/131 133/47/131 122/46/131 
f 24/52/132 24/52/132 134/51/132 123/50/132 
f 125/4/133 136/3/133 135/2/133 124/1/133 
f 5/7/134 5/7/134 136/6/134 125/5/134 
f 126/11/135 137/10/135 136/9/135 125/8/135 
f 5/14/136 5/14/136 137/13/136 126/12/136 
f 127/18/137 138/17/137 137/16/137 126/15/137 
f 128/22/135 139/21/135 138/20/135 127/19/135 
f 129/26/138 140/25/138 139/24/138 128/23/138 
f 5/29/139 5/29/139 140/28/139 129/27/139 
f 130/33/140 141/32/140 140/31/140 129/30/140 
f 131/37/138 142/36/138 141/35/138 130/34/138 
f 132/41/141 143/40/141 142/39/141 131/38/141 
f 133/45/142 144/44/142 143/43/142 132/42/142 
f 134/49/143 145/48/143 144/47/143 133/46/143 
f 24/52/144 24/52/144 145/51/144 134/50/144 
f 136/4/145 147/3/145 146/2/145 135/1/145 
f 5/7/146 5/7/146 147/6/146 136/5/146 
f 137/11/147 148/10/147 147/9/147 136/8/147 
f 5/14/148 5/14/148 148/13/148 137/12/148 
f 138/18/149 149/17/149 148/16/149 137/15/149 
f 139/22/147 150/21/147 149/20/147 138/19/147 
f 140/26/150 151/25/150 150/24/150 139/23/150 
f 5/29/151 5/29/151 151/28/151 140/27/151 
f 141/33/152 152/32/152 151/31/152 140/30/152 
f 142/37/150 153/36/150 152/35/150 141/34/150 
f 143/41/153 154/40/153 153/39/153 142/38/153 
f 144/45/154 155/44/154 154/43/154 143/42/154 
f 145/49/155 156/48/155 155/47/155 144/46/155 
f 24/52/156 24/52/156 156/51/156 145/50/156 
f 147/4/157 158/3/157 157/2/157 146/1/157 
f 5/7/158 5/7/158 158/6/158 147/5/158 
f 148/11/159 159/10/159 158/9/159 147/8/159 
f 5/14/160 5/14/160 159/13/160 148/12/160 
f 149/18/161 160/17/161 159/16/161 148/15/161 
f 150/22/159 161/21/159 160/20/159 149/19/159 
f 151/26/162 162/25/162 161/24/162 150/23/162 
f 5/29/163 5/29/163 162/28/163 151/27/163 
f 152/33/164 163/32/164 162/31/164 151/30/164 
f 153/37/162 164/36/162 163/35/162 152/34/162 
f 154/41/165 165/40/165 164/39/165 153/38/165 
f 155/45/166 166/44/166 165/43/166 154/42/166 
f 156/49/167 167/48/167 166/47/167 155/46/167 
f 24/52/168 24/52/168 167/51/168 156/50/168 
f 158/4/169 169/3/169 168/2/169 157/1/169 
f 5/7/170 5/7/170 169/6/170 158/5/170 
f 159/11/171 170/10/171 169/9/171 158/8/171 
f 5/14/172 5/14/172 170/13/172 159/12/172 
f 160/18/173 171/17/173 170/16/173 159/15/173 
f 161/22/171 172/21/171 171/20/171 160/19/171 
f 162/26/174 173/25/174 172/24/174 161/23/174 
f 5/29/175 5/29/175 173/28/175 162/27/175 
f 163/33/176 174/32/176 173/31/176 162/30/176 
f 164/37/174 175/36/174 174/35/174 163/34/174 
f 165/41/177 176/40/177 175/39/177 164/38/177 
f 166/45/178 177/44/178 176/43/178 165/42/178 
f 167/49/179 178/48/179 177/47/179 166/46/179 
f 24/52/180 24/52/180 178/51/180 167/50/180 
f 169/4/181 4/3/181 1/2/181 168/1/181 
f 5/7/182 5/7/182 4/6/182 169/5/182 
f 170/11/183 7/10/183 4/9/183 169/8/183 
f 5/14/184 5/14/184 7/13/184 170/12/184 
f 171/18/185 9/17/185 7/16/185 170/15/185 
f 172/22/183 11/21/183 9/20/183 171/19/183 
f 173/26/186 13/25/186 11/24/186 172/23/186 
f 5/29/187 5/29/187 13/28/187 173/27/187 
f 174/33/188 15/32/188 13/31/188 173/30/188 
f 175/37/186 17/36/186 15/35/186 174/34/186 
f 176/41/189 19/40/189 17/39/189 175/38/189 
f 177/45/190 21/44/190 19/43/190 176/42/190 
f 178/49/191 23/48/191 21/47/191 177/46/191 
f 24/52/192 24/52/192 23/51/192 178/50/192 


